<?xml version="1.0" standalone="no"?>
<!DOCTYPE svg PUBLIC "-//W3C//DTD SVG 20010904//EN"
 "http://www.w3.org/TR/2001/REC-SVG-20010904/DTD/svg10.dtd">
<svg version="1.0" xmlns="http://www.w3.org/2000/svg"
 width="355.000000pt" height="364.000000pt" viewBox="0 0 355.000000 364.000000"
 preserveAspectRatio="xMidYMid meet">

<g transform="translate(0.000000,364.000000) scale(0.100000,-0.100000)"
fill="#ffffff" stroke="none">
<path d="M1635 3520 c-413 -35 -784 -206 -1070 -494 -258 -260 -424 -584 -480
-941 -23 -142 -23 -384 0 -520 93 -572 468 -1064 985 -1291 376 -165 796 -193
1178 -78 633 191 1090 713 1197 1369 23 136 23 378 0 520 -79 504 -375 938
-821 1206 -278 168 -662 257 -989 229z m365 -91 c576 -80 1088 -496 1288
-1049 68 -188 95 -344 95 -555 0 -158 -11 -257 -44 -390 -128 -514 -512 -944
-1009 -1129 -110 -40 -221 -69 -335 -87 -103 -15 -357 -15 -460 0 -715 109
-1267 661 -1376 1376 -15 103 -15 357 0 460 54 356 212 666 466 917 289 285
635 442 1040 472 70 5 246 -3 335 -15z"/>
<path d="M1284 2863 c-12 -2 -39 -19 -60 -37 -34 -30 -38 -38 -41 -92 -5 -72
17 -113 77 -144 l40 -20 0 -75 0 -75 -32 -14 c-53 -22 -80 -59 -86 -114 -8
-92 51 -162 139 -162 147 0 203 187 80 265 l-41 25 0 79 0 79 34 20 c147 87
59 298 -110 265z m91 -88 c42 -41 30 -102 -24 -124 -77 -33 -141 76 -75 128
35 28 69 26 99 -4z m4 -451 c42 -53 10 -124 -55 -124 -71 0 -104 81 -52 130
32 29 81 27 107 -6z"/>
<path d="M1700 2852 c-50 -27 -80 -76 -80 -130 0 -86 61 -145 149 -144 52 1
85 22 120 75 l24 37 73 0 74 0 20 -40 c24 -47 64 -70 123 -72 85 -1 147 59
147 143 0 145 -198 200 -265 75 l-20 -36 -80 0 c-79 0 -80 0 -93 30 -28 63
-129 96 -192 62z m117 -74 c29 -27 31 -80 3 -108 -29 -29 -94 -27 -114 2 -55
78 42 171 111 106z m440 0 c29 -27 31 -80 3 -108 -29 -29 -94 -27 -114 2 -55
78 42 171 111 106z"/>
<path d="M1691 2412 c-96 -51 -90 -211 9 -252 30 -12 30 -13 30 -95 0 -82 0
-83 -30 -95 -86 -36 -106 -182 -33 -240 47 -37 96 -45 148 -26 57 22 87 63 93
130 4 50 6 53 130 179 123 124 128 127 170 127 159 0 220 204 82 275 -42 22
-128 19 -168 -5 -60 -37 -79 -123 -42 -194 l19 -39 -111 -116 c-61 -64 -114
-116 -117 -116 -3 1 -21 10 -38 20 -33 20 -33 20 -33 100 l0 80 37 20 c97 53
95 202 -4 250 -42 20 -101 19 -142 -3z m108 -57 c48 -24 56 -81 16 -120 -30
-30 -64 -32 -99 -4 -43 34 -34 99 19 127 26 15 31 15 64 -3z m440 0 c32 -16
41 -33 41 -75 0 -33 -40 -70 -75 -70 -37 0 -75 37 -75 74 0 35 14 57 45 74 26
15 31 15 64 -3z m-424 -460 c24 -24 31 -57 19 -90 -10 -24 -60 -46 -89 -39
-57 14 -75 97 -29 133 35 28 69 26 99 -4z"/>
<path d="M1238 1955 c-93 -63 -66 -226 42 -255 100 -27 190 40 190 140 0 115
-134 182 -232 115z m137 -60 c42 -41 30 -102 -24 -124 -77 -33 -141 76 -75
128 35 28 69 26 99 -4z"/>
<path d="M2125 1960 c-106 -69 -73 -241 50 -264 54 -10 110 9 141 49 53 70 38
172 -31 215 -43 27 -120 27 -160 0z m130 -65 c42 -41 30 -102 -24 -124 -77
-33 -141 76 -75 128 35 28 69 26 99 -4z"/>
<path d="M630 1300 c0 -134 2 -160 15 -160 12 0 15 24 17 137 l3 137 59 -137
c42 -99 63 -137 74 -135 8 2 38 57 70 131 30 70 57 126 59 123 3 -3 5 -61 4
-130 -2 -108 0 -126 13 -126 14 0 16 22 16 161 0 160 0 160 -22 157 -18 -2
-33 -29 -82 -141 l-59 -139 -60 141 c-53 124 -63 141 -84 141 l-23 0 0 -160z"/>
<path d="M1056 1433 c9 -16 37 -57 61 -93 40 -60 43 -69 43 -132 0 -54 3 -68
15 -68 12 0 15 14 15 70 0 70 1 72 61 161 45 67 56 90 42 87 -10 -2 -39 -35
-66 -73 -26 -39 -51 -71 -55 -72 -4 -2 -28 31 -54 72 -28 44 -54 75 -64 75
-15 0 -15 -2 2 -27z"/>
<path d="M1510 1300 l0 -160 90 0 c73 0 90 3 90 15 0 12 -15 15 -75 15 l-75 0
0 145 c0 122 -2 145 -15 145 -13 0 -15 -24 -15 -160z"/>
<path d="M1760 1300 c0 -136 2 -160 15 -160 13 0 15 24 15 160 0 136 -2 160
-15 160 -13 0 -15 -24 -15 -160z"/>
<path d="M1860 1445 c0 -12 13 -15 55 -15 l55 0 0 -145 c0 -122 2 -145 15
-145 13 0 15 23 15 145 l0 145 50 0 c38 0 50 4 50 15 0 13 -20 15 -120 15
-100 0 -120 -2 -120 -15z"/>
<path d="M2132 1448 c3 -8 26 -14 56 -16 31 -2 52 -8 53 -15 1 -7 2 -70 3
-141 1 -93 4 -130 14 -133 9 -4 12 29 12 141 l0 146 55 0 c42 0 55 3 55 15 0
13 -21 15 -126 15 -96 0 -125 -3 -122 -12z"/>
<path d="M2450 1300 l0 -160 90 0 c73 0 90 3 90 15 0 12 -15 15 -75 15 l-75 0
0 145 c0 122 -2 145 -15 145 -13 0 -15 -24 -15 -160z"/>
<path d="M2700 1300 l0 -160 100 0 c82 0 100 3 100 15 0 12 -16 15 -85 15
l-85 0 0 60 0 60 75 0 c62 0 75 3 75 16 0 14 -11 16 -75 12 l-75 -3 0 57 0 58
85 0 c69 0 85 3 85 15 0 12 -18 15 -100 15 l-100 0 0 -160z"/>
<path d="M630 910 l0 -120 75 0 c43 0 75 4 75 10 0 6 -28 10 -65 10 l-65 0 0
45 0 45 60 0 c33 0 60 4 60 10 0 6 -27 10 -60 10 l-60 0 0 40 0 39 63 3 c85 4
78 22 -10 26 l-73 3 0 -121z"/>
<path d="M893 1016 c-79 -36 -85 -179 -8 -214 49 -22 103 -15 136 18 17 16 27
35 23 41 -4 7 -15 0 -31 -20 -21 -26 -31 -31 -66 -31 -23 0 -49 6 -58 13 -61
47 -46 153 24 176 40 13 62 7 99 -27 38 -35 46 -21 11 17 -34 36 -84 47 -130
27z"/>
<path d="M1160 1012 c-75 -37 -89 -137 -28 -194 24 -23 39 -28 78 -28 57 0 93
25 110 76 23 68 -6 128 -73 153 -38 15 -46 14 -87 -7z m120 -37 c37 -38 36
-108 -3 -141 -30 -26 -83 -32 -119 -13 -27 14 -50 73 -42 107 19 79 106 104
164 47z"/>
<path d="M1397 1024 c-11 -12 -8 -234 3 -234 6 0 10 39 10 96 0 52 4 93 8 90
5 -3 26 -46 47 -96 21 -49 43 -90 50 -90 6 0 32 46 56 103 l44 102 3 -102 c4
-145 22 -131 22 17 0 101 -2 120 -15 120 -10 0 -27 -26 -45 -67 -17 -38 -38
-86 -48 -107 l-18 -39 -45 103 c-42 99 -57 119 -72 104z"/>
<path d="M1720 910 c0 -145 18 -163 22 -22 l3 97 41 -95 c23 -52 47 -95 55
-95 7 0 31 42 53 93 l41 93 3 -95 c4 -140 22 -120 22 24 0 112 -7 139 -27 108
-4 -7 -27 -56 -50 -108 l-42 -95 -21 50 c-90 211 -100 216 -100 45z"/>
<path d="M2047 1023 c-4 -3 -7 -57 -7 -120 l0 -113 75 0 c43 0 75 4 75 10 0 6
-27 10 -60 10 l-60 0 0 45 0 45 55 0 c30 0 55 5 55 10 0 6 -25 10 -55 10 l-55
0 0 40 0 40 60 0 c47 0 60 3 60 15 0 12 -14 15 -68 15 -38 0 -72 -3 -75 -7z"/>
<path d="M2260 911 c0 -74 4 -121 10 -121 6 0 10 20 10 45 0 43 2 45 28 45 20
-1 35 -12 60 -45 18 -25 37 -45 43 -45 12 0 6 11 -30 58 l-25 34 32 25 c36 28
41 60 15 92 -13 16 -34 23 -80 27 l-63 7 0 -122z m131 65 c14 -31 -3 -66 -34
-67 -12 -1 -34 -3 -49 -5 -27 -3 -28 -1 -28 47 l0 49 50 0 c43 0 52 -3 61 -24z"/>
<path d="M2545 1016 c-52 -23 -70 -52 -70 -113 0 -49 3 -58 33 -84 46 -41 108
-41 154 0 27 24 31 32 21 42 -9 9 -13 10 -13 1 0 -24 -44 -52 -81 -52 -58 0
-94 36 -94 94 0 63 37 101 97 100 33 -1 47 -7 65 -30 25 -32 41 -28 23 6 -11
21 -66 50 -92 50 -7 -1 -26 -7 -43 -14z"/>
<path d="M2750 910 l0 -120 75 0 c43 0 75 4 75 10 0 6 -28 10 -65 10 l-65 0 0
45 0 45 60 0 c33 0 60 4 60 10 0 6 -27 10 -60 10 l-60 0 0 40 0 39 63 3 c85 4
78 22 -10 26 l-73 3 0 -121z"/>
</g>
</svg>
