<?xml version="1.0" standalone="no"?>
<!DOCTYPE svg PUBLIC "-//W3C//DTD SVG 20010904//EN"
 "http://www.w3.org/TR/2001/REC-SVG-20010904/DTD/svg10.dtd">
<svg version="1.0" xmlns="http://www.w3.org/2000/svg"
 width="126.000000pt" height="124.000000pt" viewBox="0 0 126.000000 124.000000"
 preserveAspectRatio="xMidYMid meet">

<g transform="translate(0.000000,124.000000) scale(0.100000,-0.100000)"
fill="#ffffff" stroke="none">
<path d="M134 1161 c-46 -28 -64 -59 -64 -111 0 -56 26 -106 65 -128 41 -23
45 -30 45 -84 0 -61 -7 -76 -42 -94 -86 -44 -91 -200 -7 -245 36 -19 114 -14
147 10 82 58 80 163 -3 227 -34 25 -35 29 -35 92 0 64 1 66 44 108 55 52 66
95 41 160 -28 75 -122 107 -191 65z m119 -69 c41 -36 6 -122 -50 -122 -28 0
-73 41 -73 67 0 25 28 63 54 72 24 9 43 5 69 -17z m-5 -422 c44 -42 15 -120
-45 -120 -34 0 -73 36 -73 67 0 31 42 73 73 73 13 0 33 -9 45 -20z"/>
<path d="M554 1161 c-48 -29 -64 -59 -64 -119 0 -66 23 -103 80 -126 57 -23
95 -11 153 46 47 47 49 48 112 48 62 0 65 -1 80 -30 46 -88 196 -94 240 -10
35 67 8 162 -54 195 -62 31 -129 13 -177 -50 -26 -34 -28 -35 -98 -35 -68 0
-72 1 -88 30 -37 64 -123 88 -184 51z m119 -74 c42 -48 -11 -132 -70 -111 -61
21 -69 103 -13 131 30 15 59 8 83 -20z m390 21 c52 -27 61 -75 22 -113 -30
-31 -62 -32 -92 -3 -33 30 -31 80 3 107 31 24 38 25 67 9z"/>
<path d="M555 753 c-49 -25 -65 -52 -65 -111 0 -63 18 -98 66 -130 33 -22 34
-24 34 -91 0 -69 0 -70 -35 -91 -46 -28 -65 -67 -65 -131 0 -44 4 -55 33 -84
59 -59 135 -59 193 -1 26 26 34 45 40 86 7 52 11 58 118 167 l111 114 69 14
c76 16 102 33 122 82 19 45 17 82 -6 121 -59 97 -214 96 -256 -3 -19 -47 -18
-84 6 -130 l20 -40 -109 -109 -109 -109 -29 18 c-28 16 -31 23 -36 88 l-6 70
48 46 c59 56 72 102 44 159 -35 72 -119 102 -188 65z m119 -75 c24 -34 20 -73
-10 -97 -15 -12 -34 -21 -44 -21 -31 0 -70 39 -70 71 0 62 90 96 124 47z m410
6 c40 -39 24 -105 -29 -118 -25 -6 -63 7 -77 28 -13 20 -8 69 9 88 20 22 76
24 97 2z m-417 -426 c44 -41 15 -118 -44 -118 -35 0 -73 37 -73 70 0 61 72 91
117 48z"/>
<path d="M144 332 c-94 -44 -100 -188 -11 -242 118 -72 259 69 187 187 -39 65
-108 86 -176 55z m104 -68 c31 -21 31 -87 0 -108 -34 -24 -73 -20 -97 10 -27
35 -26 59 4 89 28 29 61 32 93 9z"/>
<path d="M981 332 c-100 -51 -106 -195 -10 -244 95 -49 199 14 199 121 0 58
-30 105 -80 125 -51 20 -67 20 -109 -2z m108 -78 c26 -34 27 -68 1 -94 -43
-43 -120 -14 -120 46 0 69 78 101 119 48z"/>
</g>
</svg>
